<?xml version="1.0" encoding="UTF-8" standalone="no"?>
<svg
   version="1.1"
   width="500"
   height="500"
   id="svg5"
   sodipodi:docname="icon1.svg"
   inkscape:version="1.4.3 (0d15f75, 2025-12-25)"
   xmlns:inkscape="http://www.inkscape.org/namespaces/inkscape"
   xmlns:sodipodi="http://sodipodi.sourceforge.net/DTD/sodipodi-0.dtd"
   xmlns="http://www.w3.org/2000/svg"
   xmlns:svg="http://www.w3.org/2000/svg">
  <defs
     id="defs5" />
  <sodipodi:namedview
     id="namedview5"
     pagecolor="#ffffff"
     bordercolor="#000000"
     borderopacity="0.25"
     inkscape:showpageshadow="2"
     inkscape:pageopacity="0.0"
     inkscape:pagecheckerboard="0"
     inkscape:deskcolor="#d1d1d1"
     inkscape:zoom="1.76"
     inkscape:cx="377.27273"
     inkscape:cy="219.03409"
     inkscape:window-width="1627"
     inkscape:window-height="1122"
     inkscape:window-x="2918"
     inkscape:window-y="175"
     inkscape:window-maximized="0"
     inkscape:current-layer="svg5" />
  <path
     d="M -0.56818182,-2.2727273 C 21.196079,55.647065 18.766619,117.81079 21.448486,178.53125 c -9.679964,35.55308 -41.808249,-22.76361 -51.542236,-35.99634 -11.137887,12.94471 -27.673646,55.2314 -37,60 -52.30991,5.13753 -75.21275,48.20515 -76.23437,76.17969 1.18884,15.32617 -8.38007,24.54186 -17.32813,35.13281 -52.09891,60.33085 -191.15526,114.43945 -192.4375,74.99999 7.31569,-16.91754 98.11187,-11.60301 159,-90.3125 -7.11467,-14.74996 -10.9602,-20.61746 -17.69312,-29.64868 -50.11616,10.35026 -92.48117,8.21359 -137.81079,-33.65601 -21.69124,-20.70682 -36.7418,-58.61958 -42.28881,-72.92407 -22.31462,-58.41521 -38.20728,-74.230411 -38.20728,-78.771238 68.65243,-15.295968 143.49611,2.329933 196,49.000038 27.77953,31.14039 35.7023,71.54757 37,112 -7.89745,-2.63248 -12.44079,-20.59587 -35,-43.99999 -9.16216,-11.15302 -21.20756,-19.93835 -32.3473,-29.05292 -19.34292,-15.69088 -41.47043,-27.40984 -62.6527,-37.94708 28.2042,23.26765 39.98174,26.39283 63.74028,54.12758 15.61346,17.55209 49.7741,55.23068 63.47652,74.27306 5.48854,7.61273 11.12308,15.11373 16.7832,22.59936 23.01976,-20.63278 87.785519,-150.86166 87.231616,-169.31006 -12.385256,-4.01068 -81.418736,11.77651 -67.851646,-12.54577 C -126.88641,62.593177 -16.162542,-5.5714345 -0.56818182,-2.2727273 Z"
     fill="#a6cb4a"
     id="path1"
     sodipodi:nodetypes="ccccccccccccccccccccccc"
     transform="translate(452.09375,42.465088)" />
  <path
     d="M 45,7.75 C 41.110807,16.660953 39.15257,13.11216 22,42.96875 8.6386243,66.10796 -5.7200255,86.752438 -32.6875,94.5 -65.782667,100.46555 -87.32794,91.750008 -95,86.75 c 13.860167,-19.256167 31.928451,-34.398607 78,-60 -30.003706,6.618897 -53.921537,26.967581 -74.988636,48.272727 0.708678,-24.305044 15.005759,-46.881931 33.968372,-61.069602 C -21.68442,-9.877026 26.375013,2.7511955 45,7.75 Z"
     fill="#a6cb4a"
     transform="translate(405,249.25)"
     id="path2"
     sodipodi:nodetypes="cccccccc" />
  <path
     d="m 0,0 c 50.58995,49.281368 110.68972,63.05986 115,67 0.52229,4.439443 0.35159,6.462273 -2.125,10.25 -6.47313,6.191688 -11.73891,6.293061 -18.931885,6.23047 C 51.789617,82.126282 -9.7332507,29.212077 -15.042969,14.835938 -12.507386,10.372553 -10.542177,10.805731 0,0 Z"
     fill="#4b914d"
     transform="translate(299,359)"
     id="path3"
     sodipodi:nodetypes="cccccc" />
  <path
     d="m 168.30996,209.24142 c 33.35764,28.49438 100.18433,114.99751 100.7242,117.72956 -4.15929,4.44176 -8.37255,11.51088 -12.36947,16.06352 -3.91887,-10.48482 -9.20543,-21.27644 -18.45815,-33.67905 -14.7433,-22.47414 -15.09098,-22.46964 -27.98785,-43.49662 -14.82179,-24.16535 -35.35251,-48.06534 -41.90873,-56.61741 z"
     fill="#4b914d"
     id="path4"
     sodipodi:nodetypes="ccccsc" />
  <path
     d="M 0,0 C -1.2447025,6.554764 -18.151028,22.383001 -28.590909,31.625 -27.206182,36.107483 -16.698864,36.085136 -14,43.278409 -20.861543,41.952958 -30.266026,39.489316 -37,35 -28.183376,20.836073 -13.402295,9.7140508 0,0 Z"
     fill="#4b914d"
     transform="translate(347,301)"
     id="path5"
     sodipodi:nodetypes="ccccc" />
</svg>
